<?xml version="1.0" encoding="utf-8"?>
<!-- Generator: Adobe Illustrator 16.0.0, SVG Export Plug-In . SVG Version: 6.00 Build 0)  -->
<!DOCTYPE svg PUBLIC "-//W3C//DTD SVG 1.1//EN" "http://www.w3.org/Graphics/SVG/1.1/DTD/svg11.dtd">
<svg version="1.1" id="design" xmlns="http://www.w3.org/2000/svg" xmlns:xlink="http://www.w3.org/1999/xlink" x="0px" y="0px"
	 width="249.5px" height="167px" viewBox="-13.896 -35.5 249.5 167" enable-background="new -13.896 -35.5 249.5 167"
	 xml:space="preserve">
<g>
	<g>
		<path fill="#FFFFFF" d="M73.711,124.589c-0.355,0.355-0.842,0.6-1.441,0.615c-1.254,0.059-2.845,0.059-4.155,0.021
			c-0.505-0.021-0.897-0.188-1.179-0.45c-0.28-0.281-0.43-0.692-0.43-1.254v-7.073h-1.386c-0.056,1.797-0.112,4.116-0.991,5.483
			c-1.404,2.188-3.65,3.368-6.401,3.704l-0.074-0.241c1.983-0.599,4.136-2.284,4.865-4.343c0.487-1.404,0.562-3.014,0.544-4.604
			h-3.95c-0.261,0-0.692,0.093-0.954,0.204l-0.543-0.766h7.262v-5.671c0-0.244-0.057-0.992-0.131-1.293
			c0.898,0.15,1.721,0.393,2.545,0.71c0.15,0.058,0.132,0.281,0.02,0.339c-0.169,0.074-0.432,0.223-0.432,0.45v5.465h4.343
			c0.206-0.302,0.675-0.917,0.936-1.256c0.075-0.111,0.188-0.111,0.3-0.037c0.543,0.355,1.291,1.012,1.76,1.627
			c0.055,0.058,0,0.228-0.094,0.228h-5.615v6.381c0,0.318,0.244,0.525,0.486,0.525c0.524,0,1.646,0,2.358-0.059
			c0.3-0.018,0.581-0.186,0.692-0.467c0.449-0.99,0.655-2.283,0.787-3.35l0.336,0.057c-0.019,0.786-0.019,1.571,0.075,2.318
			c0.075,0.395,0.169,0.769,0.393,1.05c0.149,0.186,0.375,0.337,0.675,0.413C74.217,123.84,74.011,124.271,73.711,124.589z
			 M63.081,115.192c-0.317,0.355-0.636,0.45-0.898,0.355c-0.243-0.074-0.449-0.318-0.543-0.729
			c-0.373-1.535-0.991-3.088-2.301-4.025l0.205-0.224c1.348,0.542,2.789,1.217,3.706,2.508
			C63.699,113.714,63.586,114.631,63.081,115.192z M72.438,111.524c-0.205,0.057-0.504,0.17-0.673,0.374
			c-1.104,1.386-2.377,2.864-3.894,3.781l-0.188-0.169c1.123-1.627,2.041-3.536,2.303-5.613c0.88,0.393,1.853,0.859,2.527,1.291
			C72.645,111.263,72.626,111.487,72.438,111.524z"/>
		<path fill="#FFFFFF" d="M95.714,113.097c-0.149,0.169-0.337,0.262-0.505,0.262c-0.188-0.019-0.375-0.132-0.506-0.373
			c-0.505-0.936-1.272-1.816-2.002-2.245c-0.225,0.334-0.486,0.71-0.618,0.896c0.337,0.17,0.749,0.377,1.03,0.674
			c0.224,0.244,0.354,0.508,0.373,0.787c0.02,0.28-0.074,0.562-0.318,0.787c-0.28,0.28-0.58,0.354-0.785,0.243
			c-0.188-0.095-0.318-0.318-0.318-0.657c0-0.504-0.075-0.934-0.262-1.42c-0.394,0.504-1.143,1.457-1.516,1.889
			c0.28,0.114,0.729,0.3,1.047,0.469h1.891c0.188-0.206,0.599-0.619,0.805-0.823c0.074-0.056,0.169-0.077,0.263,0
			c0.542,0.374,1.048,0.841,1.459,1.327c0.095,0.096,0.038,0.281-0.111,0.318c-0.319,0.074-0.449,0.263-0.449,0.562v2.583
			c0,0.485,0.019,0.954,0.019,1.423c0,0.207-0.094,0.355-0.225,0.467c-0.281,0.207-1.067,0.393-1.441,0.355
			c-0.149-0.037-0.262-0.111-0.262-0.337v-0.337h-2.096v2.603c0.729-0.206,1.479-0.413,2.17-0.731
			c-0.262-0.41-0.579-0.805-1.01-1.084l0.131-0.207c0.823,0.188,1.853,0.486,2.545,1.031c0.338,0.26,0.543,0.599,0.58,0.954
			c0.038,0.337-0.074,0.71-0.355,0.991c-0.262,0.262-0.562,0.318-0.785,0.225c-0.207-0.076-0.357-0.28-0.432-0.599
			c-0.075-0.28-0.187-0.562-0.336-0.786c-1.086,0.86-2.19,1.685-3.295,2.47c-0.094,0.074-0.243,0.302-0.28,0.432
			c-0.019,0.13-0.243,0.188-0.337,0.056c-0.43-0.562-0.824-1.161-1.16-1.76c-0.076-0.132-0.019-0.223,0.111-0.299
			c0.356-0.188,0.562-0.544,0.562-0.992v-7.226c-0.317,0.356-0.991,1.012-1.384,1.404l-0.206-0.187
			c1.516-2.357,2.919-4.849,3.667-7.504c0.693,0.223,1.554,0.561,2.246,0.879c0.15,0.074,0.15,0.393-0.055,0.411
			c-0.244,0.037-0.486,0.167-0.6,0.337c0.86,0.095,1.74,0.281,2.471,0.673c0.374,0.188,0.58,0.524,0.637,0.9
			C96.126,112.349,95.995,112.778,95.714,113.097z M93.282,114.986h-2.096v1.947h2.096V114.986z M93.282,117.514h-2.096v1.853h2.096
			V117.514z M104.379,124.139c-0.336-0.074-0.692-0.037-1.029,0.112c-0.449,0.188-0.879,0.545-1.179,0.993
			c-0.861-0.843-1.44-1.797-1.853-2.844c-0.486-1.274-0.73-2.66-0.861-4.062c-0.281,1.741-0.88,3.479-2.059,4.828
			c-0.955,1.105-2.546,2.001-3.931,2.433l-0.074-0.262c1.028-0.58,1.983-1.421,2.714-2.396c0.973-1.33,1.309-2.565,1.516-4.155
			c0.188-1.479,0.281-3.051,0.3-4.604c0.786,0.167,1.571,0.374,2.319,0.691c0.113,0.037,0.076,0.3,0,0.318
			c-0.242,0.059-0.467,0.207-0.486,0.524c-0.074,1.31,0.525,3.631,1.198,4.81c0.806,1.405,2.06,2.621,3.481,3.39L104.379,124.139z
			 M104.043,114.127c-0.244-0.021-0.525,0.019-0.786,0.093c-0.263,0.074-0.487,0.205-0.655,0.374
			c-0.562,0.599-1.141,1.161-1.778,1.722l-0.243-0.132c0.355-0.841,0.749-1.701,1.01-2.6h-3.499
			c-0.692,1.423-1.516,2.827-2.433,4.137l-0.207-0.112c0.975-2.789,1.836-5.766,1.928-8.741c0.918,0.243,1.797,0.636,2.621,1.01
			c0.131,0.076,0.15,0.376,0.019,0.395c-0.28,0.056-0.654,0.28-0.712,0.485c-0.28,0.786-0.561,1.516-0.916,2.246h3.088
			c0.225-0.225,0.692-0.654,1.029-0.953c0.057-0.059,0.206-0.021,0.28,0.037c0.338,0.336,1.236,1.383,1.442,1.722
			C104.325,113.958,104.231,114.127,104.043,114.127z"/>
		<path fill="#FFFFFF" d="M125.448,114.425h-2.583v2.864c0.673-0.205,1.479-0.485,2.208-0.824l0.132,0.206
			c-0.75,0.6-1.536,1.143-2.34,1.667v4.678c0,0.524,0.019,1.03,0.056,1.536c0.019,0.187-0.037,0.318-0.188,0.43
			c-0.467,0.337-1.066,0.467-1.572,0.413c-0.13-0.021-0.318-0.132-0.318-0.302c0.039-0.842,0.113-2.114,0.113-2.883v-2.618
			c-0.394,0.243-1.272,0.768-1.722,1.049c-0.094,0.054-0.226,0.317-0.226,0.467c-0.018,0.095-0.187,0.169-0.299,0.037
			c-0.355-0.45-0.785-1.441-1.086-2.321c1.142-0.186,2.266-0.467,3.332-0.859v-3.539h-1.254c-0.449,1.197-1.048,2.416-1.723,3.407
			l-0.28-0.111c0.618-2.173,0.937-4.661,0.974-7.038c0.73,0.206,1.516,0.506,2.078,0.786c0.131,0.074,0.074,0.263-0.02,0.3
			s-0.262,0.186-0.299,0.336c-0.131,0.6-0.356,1.272-0.525,1.741h1.049v-4.304c0-0.169-0.02-0.562-0.074-0.787
			c0.859,0.205,1.871,0.506,2.656,0.824c0.15,0.054,0.131,0.318-0.019,0.355c-0.3,0.074-0.654,0.318-0.654,0.541v3.37h0.431
			c0.187-0.28,0.468-0.656,0.748-0.938c0.037-0.054,0.131-0.037,0.188,0c0.468,0.413,0.974,0.88,1.311,1.349
			C125.596,114.333,125.542,114.425,125.448,114.425z M134.207,115.717h-9.489c-0.3,0-0.691,0.038-0.973,0.149l-0.488-0.729h3.819
			v-2.562h-1.571c-0.207,0-0.619,0.054-0.918,0.167l-0.506-0.75h2.995v-1.646c0-0.544-0.019-1.067-0.037-1.608
			c0.88,0.186,1.796,0.429,2.62,0.729c0.148,0.056,0.168,0.281,0.037,0.318c-0.28,0.093-0.637,0.357-0.637,0.58v1.627h1.535
			c0.243-0.28,0.729-0.879,1.047-1.234c0.058-0.074,0.151-0.074,0.207-0.017c0.562,0.485,1.066,0.971,1.572,1.59
			c0.057,0.074,0.018,0.244-0.094,0.244h-4.268v2.562h2.377c0.356-0.411,0.73-0.787,1.104-1.142c0.113-0.094,0.263-0.094,0.375,0
			c0.486,0.469,1.029,1.028,1.404,1.497C134.375,115.568,134.299,115.717,134.207,115.717z M134.188,118.807h-2.808v4.564
			c0,0.675-0.226,1.144-0.655,1.479c-0.43,0.354-1.086,0.562-1.871,0.731c-0.113-0.674-0.375-1.143-0.693-1.461
			c-0.393-0.355-0.936-0.562-1.59-0.803l0.056-0.302c0.804,0.15,1.665,0.206,2.489,0.188c0.15,0,0.318-0.225,0.318-0.374v-4.022
			h-4.081c-0.392,0-0.747,0.074-1.028,0.204l-0.543-0.786h5.652v-0.896c0-0.469-0.019-0.917-0.057-1.386
			c0.879,0.167,1.797,0.355,2.639,0.617c0.188,0.056,0.169,0.355,0,0.393c-0.299,0.074-0.636,0.225-0.636,0.543v0.729h0.337
			c0.205-0.244,0.636-0.729,0.954-1.085c0.057-0.056,0.168-0.076,0.243-0.019c0.486,0.43,0.936,0.936,1.348,1.421
			C134.319,118.616,134.319,118.807,134.188,118.807z M127.656,121.854c-0.149,0.244-0.354,0.451-0.636,0.583
			c-0.263,0.13-0.488,0.13-0.656,0.037c-0.261-0.151-0.355-0.543-0.373-0.938c-0.057-0.822-0.244-1.628-0.693-2.338l0.15-0.188
			c1.066,0.432,1.928,0.994,2.227,1.535C127.918,120.976,127.879,121.462,127.656,121.854z"/>
		<path fill="#FFFFFF" d="M163.997,110.777c-0.205,0.148-0.543,0.43-0.543,0.636v12.127c0,0.674-0.28,1.16-0.692,1.479
			c-0.431,0.318-1.048,0.487-1.665,0.562c-0.02-0.562-0.263-1.029-0.581-1.404c-0.317-0.355-0.692-0.618-1.16-0.806l0.056-0.281
			c0.637,0.113,1.291,0.228,1.966,0.243c0.13,0,0.261-0.13,0.261-0.317v-6.737h-1.871v0.674c0,0.132-0.094,0.244-0.243,0.337
			c-0.317,0.225-0.917,0.356-1.253,0.299c-0.169-0.019-0.3-0.074-0.281-0.223c0-0.244,0.019-0.75,0.037-1.087h-0.674
			c-0.168,0-0.618,0.075-0.861,0.133l-0.262-0.357c-0.056,1.853-0.188,3.331-0.562,4.68c-0.468,1.646-1.31,3.069-2.845,4.715
			l-0.205-0.148c1.029-1.797,1.459-3.408,1.646-5.146c0.149-1.347,0.168-2.771,0.168-4.437v-3.2h-5.408
			c-0.206,0-0.58,0.058-0.768,0.132l-0.486-0.711h4.398c0.225-0.317,0.58-0.769,0.748-1.03c0.037-0.056,0.188-0.076,0.244-0.037
			c0.373,0.355,0.916,0.917,1.271,1.272c0-1.048-0.056-2.041-0.094-3.069c0.674,0.281,1.404,0.637,2.041,0.973h5.146
			c0.188-0.244,0.543-0.636,0.768-0.861c0.074-0.093,0.188-0.093,0.299-0.019c0.506,0.413,1.104,0.898,1.46,1.31
			C164.127,110.57,164.09,110.72,163.997,110.777z M153.702,114.688h-3.967c-0.207,0-0.58,0.056-0.768,0.131l-0.486-0.713h2.994
			c0.225-0.318,0.487-0.689,0.768-0.954c0.037-0.056,0.188-0.074,0.243-0.037c0.431,0.392,0.954,0.917,1.311,1.31
			C153.871,114.52,153.778,114.688,153.702,114.688z M153.721,116.782h-3.875c-0.205,0-0.579,0.059-0.768,0.133l-0.504-0.711h2.92
			c0.225-0.317,0.411-0.582,0.691-0.861c0.037-0.039,0.188-0.076,0.244-0.039c0.486,0.395,1.029,0.806,1.385,1.219
			C153.89,116.615,153.796,116.782,153.721,116.782z M153.31,119.74v3.333c0,0.148-0.038,0.318-0.226,0.43
			c-0.281,0.148-0.785,0.374-1.197,0.393c-0.188,0-0.3-0.148-0.3-0.318v-0.748h-1.085v1.178c0,0.17-0.076,0.357-0.205,0.45
			c-0.357,0.243-0.918,0.376-1.311,0.393c-0.188,0.021-0.318-0.111-0.3-0.298c0.037-0.619,0.056-1.293,0.056-1.779v-3.929
			c0-0.357,0-0.806-0.056-1.312c0.58,0.263,1.179,0.562,1.815,0.936h1.011c0.187-0.243,0.449-0.58,0.636-0.785
			c0.074-0.074,0.168-0.058,0.244-0.02c0.279,0.206,1.028,0.768,1.422,1.104c0.075,0.076,0.094,0.28,0,0.357
			C153.553,119.292,153.31,119.479,153.31,119.74z M151.495,111.543c-0.281,0.168-0.58,0.188-0.787,0.077
			c-0.262-0.133-0.355-0.451-0.43-0.863c-0.112-0.692-0.432-1.365-0.768-1.776l0.168-0.151c0.73,0.168,1.535,0.412,2.059,0.994
			c0.226,0.26,0.3,0.599,0.263,0.917C151.962,111.058,151.774,111.355,151.495,111.543z M151.587,119.048h-1.085v3.183h1.085
			V119.048z M161.62,110.626h-5.391v5.072h1.797v-1.873h-0.374c-0.188,0-0.58,0.076-0.786,0.133l-0.506-0.711h1.666
			c0.037-0.843,0-1.704-0.037-2.507c0.73,0.13,1.629,0.392,2.246,0.615c0.093,0.037,0.093,0.243,0.018,0.28
			c-0.205,0.151-0.486,0.318-0.486,0.507v1.104h0.113c0.148-0.207,0.373-0.524,0.523-0.711c0.056-0.076,0.188-0.039,0.225-0.02
			c0.318,0.28,0.637,0.768,0.842,1.086c0.076,0.111-0.037,0.223-0.149,0.223h-1.554v1.873h0.15c0.225-0.28,0.486-0.599,0.654-0.824
			c0.057-0.074,0.168-0.055,0.207,0c0.242,0.244,0.617,0.674,0.842,0.955V110.626z M161.188,118.823
			c-0.168,0.058-0.317,0.281-0.317,0.524v2.433c0,0.151-0.074,0.318-0.224,0.43c-0.169,0.096-0.749,0.357-1.124,0.32
			c-0.168,0-0.3-0.076-0.3-0.262v-0.618h-0.898v0.58c0,0.149-0.055,0.355-0.205,0.448c-0.336,0.244-0.861,0.411-1.217,0.395
			c-0.206-0.021-0.299-0.113-0.28-0.301c0.037-0.616,0.074-1.161,0.074-1.646v-2.547c0-0.334-0.019-0.803-0.019-1.177
			c0.449,0.186,1.105,0.485,1.684,0.806h0.898c0.169-0.207,0.319-0.413,0.525-0.62c0.074-0.074,0.187-0.074,0.262-0.037
			c0.318,0.207,0.86,0.636,1.198,0.936C161.32,118.563,161.301,118.786,161.188,118.823z M159.223,118.786h-0.898v2.266h0.898
			V118.786z"/>
	</g>
	
		<line fill="none" stroke="#FFFFFF" stroke-width="0.5" stroke-miterlimit="10" x1="79.081" y1="117.727" x2="83.893" y2="117.727"/>
	
		<line fill="none" stroke="#FFFFFF" stroke-width="0.5" stroke-miterlimit="10" x1="108.215" y1="117.727" x2="113.028" y2="117.727"/>
	
		<line fill="none" stroke="#FFFFFF" stroke-width="0.5" stroke-miterlimit="10" x1="138.821" y1="117.727" x2="143.633" y2="117.727"/>
</g>
<g>
	<g>
		<g>
			<path fill="#FFFFFF" d="M6.514,0.065h5.875c2.312,6.773,4.516,12.998,6.609,18.674c2.096,5.673,3.56,9.45,4.395,11.325
				c0.353,0.851,0.799,1.458,1.336,1.819s1.256,0.541,2.155,0.541h0.53v2.167c-2.039-0.095-3.604-0.159-4.695-0.192
				c-1.092-0.031-2.008-0.047-2.745-0.047c-0.707,0-1.622,0.016-2.745,0.047c-1.124,0.033-2.754,0.098-4.888,0.192v-2.167h0.434
				c1.269,0,2.126-0.143,2.577-0.432c0.448-0.289,0.674-0.803,0.674-1.542c0-0.226-0.029-0.489-0.085-0.796
				c-0.057-0.303-0.173-0.729-0.349-1.275l-1.975-5.826c-0.915-0.015-2.119-0.035-3.612-0.061c-1.491-0.024-2.423-0.037-2.793-0.037
				c-0.69,0-2.079,0.025-4.165,0.074c-0.754,0.018-1.341,0.023-1.758,0.023l-0.096,0.241c-1.573,3.837-2.359,6.26-2.359,7.27
				c0,0.837,0.236,1.438,0.71,1.808c0.473,0.369,1.255,0.553,2.347,0.553h0.434v2.167c-1.83-0.095-3.25-0.159-4.262-0.192
				c-1.01-0.031-1.846-0.047-2.504-0.047c-0.546,0-1.264,0.016-2.154,0.047c-0.892,0.033-2.188,0.098-3.889,0.192v-2.167
				c1.156,0,2.078-0.2,2.77-0.601c0.689-0.4,1.275-1.076,1.757-2.024c0.69-1.251,2.247-4.749,4.671-10.495
				C1.137,13.558,3.737,7.146,6.514,0.065z M7.839,5.844L2.59,19.16c0.609,0.015,1.256,0.027,1.938,0.035
				c0.681,0.009,1.593,0.011,2.731,0.011c1.317,0,2.345-0.002,3.083-0.011c0.738-0.008,1.429-0.021,2.07-0.035L7.839,5.844z"/>
			<path fill="#FFFFFF" d="M44.879,0.235v2.166c-0.096,0-0.232-0.008-0.408-0.025c-0.177-0.014-0.305-0.022-0.386-0.022
				c-1.364,0-2.287,0.396-2.77,1.19c-0.481,0.797-0.722,2.814-0.722,6.057v1.927v3.585c0,3.245,0.056,5.543,0.168,6.9
				c0.113,1.356,0.305,2.427,0.578,3.215c0.609,1.908,1.686,3.375,3.227,4.393c1.541,1.019,3.436,1.531,5.682,1.531
				c1.848,0,3.42-0.311,4.72-0.93c1.3-0.615,2.359-1.562,3.179-2.829c0.545-0.851,0.936-1.962,1.168-3.333
				c0.232-1.372,0.349-3.416,0.349-6.13c0-0.513-0.009-1.367-0.024-2.563c-0.016-1.195-0.023-2.129-0.023-2.805v-2.529
				c0-3.385-0.241-5.512-0.723-6.379c-0.48-0.865-1.404-1.3-2.769-1.3c-0.21,0-0.37,0.005-0.481,0.013
				c-0.113,0.008-0.217,0.01-0.313,0.01V0.235c1.493,0.078,2.733,0.14,3.721,0.18c0.987,0.039,1.833,0.06,2.54,0.06
				c0.658,0,1.456-0.021,2.396-0.06c0.938-0.04,2.163-0.102,3.672-0.18v2.166h-0.386c-0.963,0-1.678,0.109-2.143,0.324
				c-0.466,0.217-0.803,0.599-1.012,1.145c-0.305,0.803-0.497,4.295-0.578,10.475c0,0.882-0.008,1.565-0.023,2.044
				c0,0.306,0,0.748,0,1.326c-0.032,5.489-0.626,9.261-1.782,11.317c-1.155,2.053-2.857,3.643-5.104,4.767
				c-2.246,1.123-4.863,1.685-7.849,1.685c-2.745,0-5.181-0.454-7.308-1.36c-2.127-0.907-3.8-2.195-5.021-3.864
				c-0.915-1.252-1.564-2.697-1.95-4.333c-0.385-1.64-0.578-4.076-0.578-7.321c0-0.865,0.024-2.405,0.072-4.623
				c0.049-2.215,0.072-3.986,0.072-5.32c0-2.809-0.229-4.554-0.686-5.237c-0.458-0.682-1.36-1.022-2.709-1.022h-0.577V0.235
				c1.813,0.078,3.286,0.14,4.417,0.18c1.132,0.039,2.107,0.06,2.926,0.06c0.755,0,1.701-0.021,2.842-0.06
				C41.42,0.375,42.953,0.313,44.879,0.235z"/>
			<path fill="#FFFFFF" d="M73.252,32.473c0.128,0.017,0.253,0.029,0.374,0.037c0.12,0.009,0.309,0.013,0.565,0.013
				c1.316,0,2.203-0.434,2.66-1.301c0.457-0.868,0.688-3.162,0.688-6.886v-1.782v-1.662v-0.889l0.096-5.395
				c0.016-1.14,0.027-2.271,0.035-3.395c0.009-1.124,0.014-2.473,0.014-4.044c0-2.024-0.246-3.333-0.736-3.926
				c-0.488-0.593-1.408-0.891-2.756-0.891h-0.506V0.235c1.717,0.078,3.139,0.14,4.262,0.18c1.123,0.039,2.103,0.06,2.938,0.06
				c1.188,0,2.664-0.039,4.43-0.12c1.766-0.08,2.953-0.119,3.564-0.119c3.98,0,7.118,0.826,9.414,2.478
				c2.295,1.654,3.443,3.901,3.443,6.743c0,1.894-0.574,3.562-1.723,5.008c-1.146,1.446-2.868,2.681-5.164,3.709l4.719,6.645
				c2.248,3.5,3.889,5.697,4.924,6.598c1.036,0.898,2.14,1.347,3.312,1.347c0.062,0,0.155-0.008,0.275-0.022
				c0.121-0.017,0.213-0.025,0.277-0.025v2.022c-0.98,0.083-1.83,0.141-2.553,0.182c-0.722,0.039-1.356,0.06-1.902,0.06
				c-1.959,0-3.49-0.217-4.598-0.65s-2.104-1.179-2.986-2.238c-0.417-0.498-1.445-2.099-3.082-4.804
				c-1.637-2.706-3.073-5.019-4.31-6.947c-0.995,0.032-1.878,0.058-2.648,0.074s-1.517,0.022-2.239,0.022v6.404
				c0,2.457,0.241,4.002,0.723,4.635c0.48,0.636,1.428,0.951,2.84,0.951h0.675v2.167c-1.316-0.079-2.632-0.141-3.948-0.18
				s-2.664-0.06-4.045-0.06c-0.45,0-1.112,0.012-1.986,0.037c-0.875,0.022-2.557,0.091-5.045,0.202V32.473z M84.039,17.281
				c0.851,0.05,1.573,0.083,2.167,0.107s1.091,0.037,1.493,0.037c0.496,0,1.026-0.013,1.59-0.037
				c0.561-0.024,1.146-0.058,1.757-0.107c1.396-0.9,2.419-1.921,3.069-3.069s0.975-2.492,0.975-4.035
				c0-2.006-0.678-3.631-2.033-4.874c-1.357-1.243-3.159-1.866-5.406-1.866c-0.69,0-1.32,0.024-1.89,0.072
				c-0.569,0.047-1.128,0.121-1.674,0.217c-0.017,1.751-0.028,3.58-0.036,5.488C84.043,11.127,84.039,13.813,84.039,17.281z"/>
			<path fill="#FFFFFF" d="M131.963-0.657c2.553,0,4.832,0.352,6.838,1.049c2.008,0.698,3.854,1.776,5.539,3.238
				c1.957,1.702,3.467,3.729,4.527,6.08c1.059,2.351,1.588,4.841,1.588,7.477c0,5.23-1.773,9.59-5.322,13.072
				c-3.547,3.482-7.984,5.225-13.314,5.225c-2.777,0-5.289-0.454-7.535-1.36c-2.248-0.907-4.238-2.26-5.973-4.059
				c-1.605-1.685-2.828-3.605-3.672-5.766c-0.842-2.158-1.264-4.448-1.264-6.873c0-2.681,0.525-5.171,1.578-7.476
				c1.051-2.306,2.58-4.314,4.586-6.031c1.67-1.445,3.596-2.568,5.779-3.372C127.5-0.257,129.715-0.657,131.963-0.657z
				 M143.014,18.028c0-4.543-1.051-8.194-3.152-10.957c-2.104-2.76-4.863-4.139-8.283-4.139c-3.273,0-5.887,1.227-7.838,3.682
				c-1.949,2.455-2.924,5.778-2.924,9.969c0,4.574,1.062,8.25,3.189,11.028c2.127,2.775,4.893,4.163,8.295,4.163
				c3.291,0,5.898-1.227,7.824-3.684C142.053,25.637,143.014,22.281,143.014,18.028z"/>
			<path fill="#FFFFFF" d="M156.725,32.473c0.127,0.017,0.252,0.029,0.373,0.037c0.121,0.009,0.309,0.013,0.566,0.013
				c1.316,0,2.203-0.434,2.66-1.301c0.457-0.868,0.686-3.162,0.686-6.886v-1.782v-1.662v-0.889l0.098-5.395
				c0.016-1.14,0.027-2.271,0.035-3.395c0.008-1.124,0.012-2.473,0.012-4.044c0-2.024-0.244-3.333-0.734-3.926
				s-1.408-0.891-2.756-0.891h-0.506V0.235c1.717,0.078,3.139,0.14,4.262,0.18c1.123,0.039,2.102,0.06,2.938,0.06
				c1.188,0,2.664-0.039,4.43-0.12c1.766-0.08,2.953-0.119,3.564-0.119c3.98,0,7.117,0.826,9.414,2.478
				c2.295,1.654,3.443,3.901,3.443,6.743c0,1.894-0.574,3.562-1.723,5.008c-1.146,1.446-2.869,2.681-5.164,3.709l4.719,6.645
				c2.248,3.5,3.889,5.697,4.924,6.598c1.035,0.898,2.139,1.347,3.311,1.347c0.064,0,0.156-0.008,0.277-0.022
				c0.119-0.017,0.213-0.025,0.277-0.025v2.022c-0.98,0.083-1.83,0.141-2.553,0.182c-0.723,0.039-1.357,0.06-1.902,0.06
				c-1.959,0-3.49-0.217-4.598-0.65c-1.109-0.434-2.104-1.179-2.986-2.238c-0.418-0.498-1.445-2.099-3.082-4.804
				c-1.637-2.706-3.074-5.019-4.311-6.947c-0.994,0.032-1.877,0.058-2.648,0.074c-0.77,0.017-1.516,0.022-2.238,0.022v6.404
				c0,2.457,0.24,4.002,0.723,4.635c0.48,0.636,1.428,0.951,2.84,0.951h0.674v2.167c-1.316-0.079-2.631-0.141-3.947-0.18
				s-2.664-0.06-4.045-0.06c-0.451,0-1.113,0.012-1.986,0.037c-0.875,0.022-2.557,0.091-5.045,0.202V32.473z M167.512,17.281
				c0.85,0.05,1.572,0.083,2.166,0.107s1.092,0.037,1.494,0.037c0.496,0,1.025-0.013,1.588-0.037s1.148-0.058,1.758-0.107
				c1.396-0.9,2.42-1.921,3.07-3.069s0.975-2.492,0.975-4.035c0-2.006-0.678-3.631-2.033-4.874c-1.357-1.243-3.16-1.866-5.406-1.866
				c-0.691,0-1.32,0.024-1.891,0.072c-0.568,0.047-1.127,0.121-1.674,0.217c-0.016,1.751-0.027,3.58-0.035,5.488
				C167.516,11.127,167.512,13.813,167.512,17.281z"/>
			<path fill="#FFFFFF" d="M211.293,0.065h5.875c2.311,6.773,4.514,12.998,6.609,18.674c2.094,5.673,3.559,9.45,4.395,11.325
				c0.352,0.851,0.797,1.458,1.336,1.819c0.537,0.361,1.256,0.541,2.154,0.541h0.529v2.167c-2.039-0.095-3.604-0.159-4.695-0.192
				c-1.09-0.031-2.006-0.047-2.744-0.047c-0.707,0-1.621,0.016-2.746,0.047c-1.123,0.033-2.752,0.098-4.887,0.192v-2.167h0.434
				c1.268,0,2.127-0.143,2.576-0.432s0.674-0.803,0.674-1.542c0-0.226-0.027-0.489-0.084-0.796c-0.057-0.303-0.172-0.729-0.35-1.275
				l-1.973-5.826c-0.916-0.015-2.119-0.035-3.613-0.061c-1.492-0.024-2.424-0.037-2.793-0.037c-0.689,0-2.078,0.025-4.164,0.074
				c-0.756,0.018-1.342,0.023-1.76,0.023l-0.096,0.241c-1.572,3.837-2.359,6.26-2.359,7.27c0,0.837,0.236,1.438,0.711,1.808
				c0.473,0.369,1.256,0.553,2.348,0.553h0.434v2.167c-1.83-0.095-3.252-0.159-4.262-0.192c-1.012-0.031-1.846-0.047-2.504-0.047
				c-0.547,0-1.264,0.016-2.156,0.047c-0.891,0.033-2.186,0.098-3.889,0.192v-2.167c1.156,0,2.08-0.2,2.77-0.601
				s1.277-1.076,1.758-2.024c0.689-1.251,2.248-4.749,4.67-10.495C205.917,13.558,208.516,7.146,211.293,0.065z M212.618,5.844
				L207.37,19.16c0.609,0.015,1.254,0.027,1.938,0.035c0.682,0.009,1.592,0.011,2.732,0.011c1.316,0,2.344-0.002,3.082-0.011
				c0.738-0.008,1.428-0.021,2.07-0.035L212.618,5.844z"/>
			<path fill="#FFFFFF" d="M39.596,54.139v0.531c0,1.171,0.068,2.37,0.205,3.597c0.137,1.229,0.341,2.493,0.614,3.792l-2.504,0.411
				c-0.273-2.088-1.047-3.661-2.323-4.719c-1.276-1.06-3.031-1.59-5.262-1.59c-2.07,0-3.691,0.408-4.863,1.229
				s-1.758,1.949-1.758,3.393c0,0.965,0.241,1.797,0.723,2.495c0.482,0.698,1.228,1.312,2.239,1.843
				c0.786,0.416,2.147,0.945,4.081,1.588s3.366,1.146,4.298,1.516c2.103,0.867,3.681,1.999,4.731,3.395
				c1.051,1.398,1.576,3.059,1.576,4.984c0,3.5-1.34,6.295-4.021,8.38c-2.681,2.086-6.316,3.131-10.906,3.131
				c-1.51,0-3.034-0.148-4.575-0.446c-1.541-0.297-3.043-0.727-4.502-1.288c0-0.178,0.008-0.413,0.023-0.71
				c0.016-0.298,0.024-0.517,0.024-0.661c0-1.237-0.076-2.497-0.229-3.782c-0.152-1.284-0.389-2.607-0.71-3.973l2.624-0.65
				c0.609,2.953,1.593,5.018,2.949,6.188c1.357,1.172,3.375,1.759,6.056,1.759c2.167,0,3.878-0.483,5.129-1.445
				c1.253-0.963,1.878-2.255,1.878-3.876c0-2.312-2.207-4.244-6.621-5.802c-0.979-0.339-1.727-0.603-2.239-0.795
				c-3.05-1.14-5.237-2.464-6.562-3.974c-1.323-1.51-1.986-3.396-1.986-5.656c0-3.115,1.204-5.628,3.612-7.538
				c2.407-1.908,5.593-2.864,9.559-2.864c1.38,0,2.78,0.123,4.202,0.373C36.479,53.22,37.99,53.608,39.596,54.139z"/>
			<path fill="#FFFFFF" d="M48.516,53.055c2.729,0.113,5.248,0.198,7.561,0.252c2.311,0.058,4.342,0.087,6.091,0.087
				c2.938,0,5.421-0.029,7.452-0.087c2.03-0.054,3.921-0.139,5.67-0.252c0.032,1.396,0.096,2.773,0.193,4.13
				c0.096,1.355,0.232,2.725,0.409,4.106l-2.167,0.289c-0.225-2.008-0.888-3.362-1.986-4.071c-1.1-0.706-3.303-1.059-6.609-1.059
				c-0.594,0-1.385,0.012-2.372,0.037c-0.987,0.024-2.194,0.06-3.624,0.107c-0.031,2.119-0.06,4.15-0.083,6.092
				c-0.024,1.941-0.053,3.805-0.085,5.584h0.698c0.931,0,2.091,0.009,3.479,0.025s2.315,0.024,2.781,0.024
				c2.215,0,3.668-0.217,4.357-0.65s1.06-1.26,1.107-2.48l1.781,0.17c0,0.801-0.023,1.809-0.072,3.021
				c-0.047,1.212-0.072,2.034-0.072,2.468s0.013,0.987,0.037,1.66c0.024,0.676,0.061,1.487,0.107,2.433l-2.021,0.145v-0.289
				c0-1.38-0.397-2.311-1.192-2.792c-0.794-0.483-2.669-0.723-5.622-0.723h-3.588h-1.83v2.768c0,1.429,0.009,2.895,0.025,4.395
				c0.016,1.501,0.039,3.288,0.072,5.357c0.722,0.097,1.625,0.173,2.709,0.229c1.082,0.057,2.266,0.085,3.551,0.085
				c3.836,0,6.393-0.4,7.669-1.204c1.274-0.803,2.307-2.344,3.094-4.624l2.215,0.698c-0.53,1.543-0.983,3.011-1.36,4.407
				c-0.377,1.396-0.695,2.755-0.951,4.068c-3.788-0.128-6.806-0.215-9.053-0.265c-2.248-0.047-4.246-0.07-5.996-0.07
				c-1.975,0-5.128,0.07-9.461,0.215c-1.494,0.05-2.625,0.089-3.396,0.12v-2.119c0.097,0.017,0.205,0.029,0.326,0.037
				c0.119,0.009,0.301,0.013,0.541,0.013c1.348,0,2.264-0.413,2.746-1.239c0.48-0.828,0.721-2.999,0.721-6.514V75.23v-2.214
				l0.049-5.369c0-0.242,0.008-0.604,0.023-1.084c0.049-1.975,0.072-3.323,0.072-4.046s-0.008-1.477-0.023-2.264
				c-0.017-0.784-0.024-1.219-0.024-1.301c0-1.396-0.253-2.367-0.759-2.912c-0.506-0.546-1.385-0.817-2.636-0.817h-0.554V53.055z"/>
			<path fill="#FFFFFF" d="M83.869,85.342c0.128,0.017,0.253,0.029,0.374,0.037c0.12,0.009,0.309,0.013,0.565,0.013
				c1.316,0,2.203-0.434,2.66-1.301s0.688-3.162,0.688-6.886v-1.782v-1.662v-0.889l0.096-5.395c0.016-1.14,0.027-2.271,0.035-3.395
				c0.009-1.124,0.014-2.473,0.014-4.044c0-2.024-0.246-3.333-0.736-3.926c-0.488-0.593-1.408-0.89-2.756-0.89h-0.506v-2.119
				c1.717,0.078,3.139,0.141,4.262,0.18s2.103,0.06,2.938,0.06c1.188,0,2.664-0.039,4.43-0.12c1.766-0.08,2.953-0.119,3.564-0.119
				c3.98,0,7.118,0.826,9.414,2.479c2.295,1.653,3.444,3.9,3.444,6.742c0,1.895-0.574,3.562-1.723,5.008
				c-1.146,1.446-2.868,2.682-5.164,3.709l4.719,6.645c2.249,3.5,3.889,5.697,4.924,6.598c1.035,0.898,2.139,1.347,3.312,1.347
				c0.062,0,0.154-0.008,0.275-0.022c0.121-0.017,0.213-0.024,0.277-0.024v2.021c-0.98,0.083-1.83,0.141-2.553,0.182
				c-0.723,0.039-1.357,0.06-1.902,0.06c-1.959,0-3.491-0.217-4.598-0.65s-2.104-1.179-2.986-2.238
				c-0.417-0.498-1.445-2.099-3.081-4.804c-1.638-2.706-3.074-5.019-4.311-6.947c-0.995,0.033-1.878,0.058-2.648,0.074
				s-1.517,0.022-2.239,0.022v6.404c0,2.458,0.241,4.002,0.723,4.635c0.48,0.636,1.428,0.952,2.84,0.952h0.675v2.166
				c-1.316-0.078-2.632-0.141-3.948-0.18s-2.664-0.06-4.045-0.06c-0.45,0-1.112,0.012-1.986,0.037
				c-0.875,0.022-2.557,0.091-5.045,0.202V85.342z M94.656,70.15c0.851,0.05,1.573,0.083,2.167,0.107s1.091,0.037,1.493,0.037
				c0.496,0,1.026-0.013,1.59-0.037c0.561-0.024,1.146-0.058,1.757-0.107c1.396-0.9,2.419-1.921,3.069-3.069
				c0.65-1.147,0.976-2.492,0.976-4.035c0-2.005-0.679-3.631-2.034-4.874c-1.357-1.243-3.159-1.866-5.406-1.866
				c-0.69,0-1.32,0.024-1.889,0.072c-0.57,0.047-1.129,0.121-1.674,0.217c-0.018,1.751-0.029,3.581-0.037,5.489
				C94.66,63.996,94.656,66.683,94.656,70.15z"/>
			<path fill="#FFFFFF" d="M123.608,53.104c1.572,0.095,3.012,0.167,4.32,0.215c1.309,0.049,2.477,0.074,3.504,0.074
				c1.012,0,2.146-0.025,3.406-0.074c1.262-0.048,2.662-0.12,4.201-0.215v2.166h-0.504c-1.107,0-1.898,0.113-2.371,0.337
				c-0.475,0.225-0.816,0.636-1.023,1.227c-0.178,0.5-0.307,1.479-0.387,2.938c-0.08,1.461-0.119,4.085-0.119,7.875v9.895
				c0,2.264,0.043,3.833,0.131,4.706c0.09,0.876,0.246,1.515,0.471,1.917c0.225,0.4,0.602,0.689,1.131,0.865
				s1.316,0.265,2.359,0.265h0.602v2.166c-1.766-0.095-3.314-0.167-4.646-0.215c-1.332-0.05-2.465-0.074-3.395-0.074
				c-0.852,0-1.951,0.024-3.299,0.074c-1.348,0.048-2.914,0.12-4.695,0.215v-2.166h0.604c1.074,0,1.877-0.089,2.406-0.265
				s0.891-0.465,1.084-0.865c0.24-0.45,0.41-1.186,0.506-2.206c0.096-1.018,0.145-2.866,0.145-5.549v-3.637V62.325
				c0-1.99-0.045-3.383-0.133-4.178c-0.088-0.793-0.244-1.384-0.471-1.77c-0.207-0.387-0.572-0.665-1.094-0.843
				c-0.521-0.176-1.273-0.265-2.252-0.265h-0.48V53.104z"/>
			<path fill="#FFFFFF" d="M145.288,53.055c2.729,0.113,5.248,0.198,7.561,0.252c2.311,0.058,4.342,0.087,6.09,0.087
				c2.939,0,5.422-0.029,7.453-0.087c2.029-0.054,3.92-0.139,5.67-0.252c0.031,1.396,0.096,2.773,0.193,4.13
				c0.096,1.355,0.232,2.725,0.408,4.106l-2.166,0.289c-0.225-2.008-0.889-3.362-1.986-4.071c-1.1-0.706-3.303-1.059-6.609-1.059
				c-0.594,0-1.385,0.012-2.373,0.037c-0.986,0.024-2.193,0.06-3.623,0.107c-0.031,2.119-0.061,4.15-0.084,6.092
				s-0.053,3.805-0.084,5.584h0.697c0.932,0,2.092,0.009,3.48,0.025s2.314,0.024,2.781,0.024c2.215,0,3.668-0.217,4.357-0.65
				s1.059-1.26,1.107-2.48l1.781,0.17c0,0.801-0.023,1.809-0.072,3.021c-0.047,1.212-0.072,2.034-0.072,2.468
				s0.012,0.987,0.037,1.66c0.023,0.676,0.061,1.487,0.107,2.433l-2.021,0.145v-0.289c0-1.38-0.398-2.311-1.193-2.792
				c-0.793-0.483-2.668-0.723-5.621-0.723h-3.588h-1.83v2.768c0,1.429,0.008,2.895,0.025,4.395c0.016,1.501,0.039,3.288,0.072,5.357
				c0.721,0.097,1.625,0.173,2.709,0.229c1.082,0.057,2.266,0.085,3.551,0.085c3.836,0,6.393-0.4,7.668-1.204
				c1.275-0.803,2.307-2.344,3.094-4.624l2.215,0.698c-0.529,1.543-0.982,3.011-1.359,4.407c-0.377,1.396-0.695,2.755-0.951,4.068
				c-3.789-0.128-6.807-0.215-9.055-0.265c-2.246-0.047-4.244-0.07-5.994-0.07c-1.975,0-5.129,0.07-9.463,0.215
				c-1.492,0.05-2.623,0.089-3.395,0.12v-2.119c0.096,0.017,0.205,0.029,0.326,0.037c0.119,0.009,0.301,0.013,0.541,0.013
				c1.348,0,2.264-0.413,2.746-1.239c0.48-0.828,0.721-2.999,0.721-6.514V75.23v-2.214l0.049-5.369c0-0.242,0.008-0.604,0.023-1.084
				c0.049-1.975,0.072-3.323,0.072-4.046s-0.008-1.477-0.023-2.264c-0.018-0.784-0.025-1.219-0.025-1.301
				c0-1.396-0.252-2.367-0.758-2.912c-0.506-0.546-1.385-0.817-2.637-0.817h-0.553V53.055z"/>
			<path fill="#FFFFFF" d="M204.309,54.139v0.531c0,1.171,0.068,2.37,0.205,3.597c0.137,1.229,0.34,2.493,0.613,3.792l-2.504,0.411
				c-0.273-2.088-1.047-3.661-2.322-4.719c-1.277-1.06-3.031-1.59-5.262-1.59c-2.07,0-3.693,0.408-4.863,1.229
				c-1.172,0.82-1.758,1.949-1.758,3.393c0,0.965,0.24,1.797,0.723,2.495c0.48,0.698,1.227,1.312,2.238,1.843
				c0.787,0.416,2.146,0.945,4.082,1.588c1.934,0.643,3.365,1.146,4.297,1.516c2.104,0.867,3.68,1.999,4.732,3.395
				c1.051,1.398,1.576,3.059,1.576,4.984c0,3.5-1.34,6.295-4.021,8.38c-2.68,2.086-6.316,3.131-10.906,3.131
				c-1.51,0-3.033-0.148-4.576-0.446c-1.539-0.297-3.041-0.727-4.502-1.288c0-0.178,0.01-0.413,0.025-0.71
				c0.016-0.298,0.023-0.517,0.023-0.661c0-1.237-0.076-2.497-0.229-3.782c-0.152-1.284-0.389-2.607-0.711-3.973l2.625-0.65
				c0.609,2.953,1.592,5.018,2.949,6.188c1.357,1.172,3.375,1.759,6.055,1.759c2.168,0,3.879-0.483,5.129-1.445
				c1.254-0.963,1.879-2.255,1.879-3.876c0-2.312-2.207-4.244-6.621-5.802c-0.98-0.339-1.727-0.603-2.24-0.795
				c-3.049-1.14-5.236-2.464-6.561-3.974s-1.986-3.396-1.986-5.656c0-3.115,1.203-5.628,3.611-7.538
				c2.408-1.908,5.594-2.864,9.559-2.864c1.381,0,2.781,0.123,4.201,0.373C201.192,53.22,202.704,53.608,204.309,54.139z"/>
		</g>
		<g>
			<path fill-rule="evenodd" clip-rule="evenodd" fill="#FFFFFF" d="M153.151-29.109c-0.111-0.395-0.234-0.791-0.609-1.033
				c-0.09,0.015-0.168,0.027-0.258,0.04c-0.152,0.38-0.158,0.768-0.061,1.168c0.164,0.711,0.271,1.434,0.271,2.163
				c0.008,1.518-0.416,2.955-0.912,4.376c-0.408,1.164-1.092,2.123-1.982,2.966c-0.496,0.473-0.965,0.971-1.439,1.466
				c-0.004-0.828-0.217-1.482-0.336-1.716c-0.273-0.531-0.5-0.374-0.5-0.374c-0.137,0.062-0.107,0.389-0.107,0.389
				s0.143,0.219,0.133,1.425c-0.006,0.574-0.236,1.086-0.49,1.499c-0.18,0.157-0.348,0.326-0.535,0.471
				c-0.119,0.096-0.195,0.129-0.287-0.041c-0.596-1.103-1.205-2.201-1.689-3.362c-0.193-0.471-0.328-0.954-0.408-1.456
				c-0.121-0.799-0.094-1.601-0.059-2.401c0.01-0.329-0.006-0.657-0.135-0.965c-0.074-0.171-0.203-0.304-0.412-0.278
				c-0.211,0.021-0.26,0.189-0.297,0.361c-0.008,0.051-0.02,0.101-0.023,0.154c-0.094,1.021-0.24,2.037-0.18,3.061
				c0.043,0.756,0.123,1.506,0.25,2.247c-0.953-0.265-1.439-0.669-1.586-0.943c-0.158-0.287-0.174-0.795-0.617-0.692
				c-0.441,0.104-0.117,1.024-0.117,1.024c0.695,1.508,2.15,1.686,2.666,2.088c0.008,0.015,0.008,0.031,0.012,0.044
				c0.078,0.223,0.195,0.421,0.311,0.623c-0.021,0.182-0.09,0.364-0.102,0.566c-0.021,0.421,0.434,0.512,0.434,0.512
				c0.004,0.002,0.006,0,0.01,0c-0.094,0.153-0.098,0.335-0.029,0.529c0.084,0.25,0.266,0.458,0.4,0.686
				c-0.072,0.233-0.088,0.467-0.039,0.708c-0.219,0.283-0.559,0.618-0.639,1.111c-0.115,0.745-0.594,2.53-0.598,3.86
				c0,0.264-0.029,0.491-0.07,0.701c-0.389,0.331-0.543,0.735-0.553,1.184c-0.066,0.085-0.125,0.186-0.174,0.318
				c-0.215,0.547-0.268,0.51-0.838,1.063c-0.541,0.524-2.361,1.623-3.689,2.247c-0.008,0.004-0.016,0-0.025,0.004
				c-0.246,0.107-0.502,0.223-0.748,0.335c-0.012-0.149-0.01-0.331,0.041-0.611c0.234-0.985,0.314-1.751,0.242-2.408
				c-0.018-0.163-0.09-0.715-0.152-0.938c-0.299-1.103-0.623-1.688-1.328-2.536c-0.545-0.648-0.555-1.398-0.578-1.844
				c-0.01-0.176-0.023-0.314-0.205-0.342c-0.191-0.024-0.195,0.129-0.24,0.294c-0.088,0.317-0.117,0.64-0.104,0.973
				c0.043,1.051,0.443,1.943,0.924,2.809c0.365,0.661,0.465,1.386,0.369,2.169c-0.074,0.573-0.375,2.344-0.93,2.883
				c-0.207,0.204-0.348,0.473-0.357,0.956c-0.002,0.091,0.01,0.178,0.027,0.262c-0.08,0.118-0.172,0.233-0.203,0.345
				c-0.193,0.694-0.625,1.648-0.051,2.276c0.564,0.628,1.236,0.958,1.998,0.622c0.76-0.335,1.004-1.632,1.035-1.727
				c0.016-0.057,0.039-0.261,0.076-0.474c0.129-0.334,0.543-1.003,1.945-1.743c1.996-1.053,3.047-2.275,3.441-2.713
				c0.395-0.436,0.629-0.513,0.869-0.645c0.076-0.046,0.17-0.145,0.26-0.261c0.02-0.002,0.062-0.002,0.062-0.002
				s1.434,0.267,3.504-1.11c1.83-1.217,2.17-3.836,1.736-4.74c-0.346-0.719-0.471-1.16-0.402-1.652
				c0.084-0.619-0.023-0.723-0.123-0.732c-0.15-0.018-0.277,0.272-0.34,0.625c-0.064,0.385-0.127,1.148,0.055,1.693
				c0.484,1.393-0.271,2.518-0.965,3.214c-0.609,0.615-1.814,0.921-2.697,0.995c0.197-0.784,0.377-1.569,0.426-2.385
				c0.07-1.095,0.143-2.191,0.494-3.244c0.016-0.053,0.057-0.09,0.078-0.137c0.541-0.641,1.256-1.425,1.738-1.739
				c0,0,0.217-0.241,0.219-0.475c0.072-0.074,0.148-0.139,0.217-0.215c0.645-0.713,1.254-1.458,1.936-2.132
				c0.596-0.588,1.178-1.179,1.604-1.903c1.01-1.71,1.703-3.538,1.938-5.515C153.819-26.464,153.524-27.798,153.151-29.109z"/>
			<path fill-rule="evenodd" clip-rule="evenodd" fill="#FFFFFF" d="M129.012-1.313c0.016-0.083,0.029-0.172,0.027-0.265
				c-0.014-0.483-0.152-0.752-0.357-0.956c-0.555-0.539-0.861-2.31-0.93-2.883c-0.1-0.783,0.002-1.508,0.369-2.169
				c0.477-0.865,0.873-1.758,0.92-2.809c0.016-0.333-0.016-0.655-0.104-0.973c-0.047-0.165-0.049-0.318-0.236-0.294
				c-0.186,0.027-0.193,0.166-0.203,0.342c-0.029,0.445-0.039,1.195-0.582,1.844c-0.707,0.849-1.023,1.434-1.328,2.536
				c-0.059,0.223-0.133,0.774-0.15,0.938c-0.074,0.657,0.01,1.423,0.234,2.408c0.053,0.28,0.057,0.462,0.045,0.611
				c-0.246-0.112-0.502-0.228-0.746-0.335c-0.01-0.004-0.016,0-0.023-0.004c-1.328-0.624-3.152-1.723-3.693-2.247
				c-0.568-0.554-0.619-0.517-0.832-1.063c-0.053-0.133-0.109-0.233-0.178-0.32c-0.006-0.446-0.162-0.851-0.551-1.18
				c-0.043-0.21-0.072-0.439-0.072-0.703c0-1.33-0.486-3.115-0.596-3.86c-0.08-0.493-0.424-0.828-0.645-1.111
				c0.051-0.241,0.033-0.477-0.037-0.712c0.137-0.224,0.316-0.432,0.404-0.682c0.066-0.192,0.061-0.376-0.031-0.529
				c0.004,0,0.006,0.002,0.012,0c0,0,0.449-0.091,0.43-0.512c-0.012-0.202-0.078-0.385-0.1-0.566c0.113-0.202,0.234-0.4,0.311-0.623
				c0.006-0.013,0.006-0.029,0.012-0.044c0.512-0.402,1.973-0.58,2.666-2.088c0,0,0.322-0.921-0.117-1.024
				c-0.439-0.103-0.457,0.405-0.613,0.692c-0.156,0.274-0.637,0.679-1.588,0.943c0.123-0.741,0.205-1.491,0.25-2.247
				c0.055-1.023-0.092-2.04-0.18-3.061c-0.008-0.054-0.016-0.104-0.023-0.154c-0.039-0.172-0.09-0.341-0.297-0.361
				c-0.211-0.025-0.344,0.107-0.418,0.278c-0.123,0.308-0.143,0.636-0.125,0.965c0.027,0.801,0.055,1.603-0.066,2.401
				c-0.08,0.502-0.211,0.985-0.408,1.456c-0.48,1.161-1.09,2.26-1.688,3.362c-0.092,0.17-0.166,0.137-0.291,0.041
				c-0.188-0.145-0.354-0.315-0.533-0.471c-0.254-0.417-0.484-0.925-0.486-1.499c-0.01-1.206,0.129-1.425,0.129-1.425
				s0.031-0.326-0.105-0.389c0,0-0.229-0.157-0.498,0.374c-0.119,0.233-0.332,0.886-0.338,1.716
				c-0.477-0.495-0.945-0.995-1.443-1.466c-0.887-0.843-1.57-1.802-1.979-2.966c-0.494-1.421-0.918-2.858-0.913-4.376
				c0.002-0.729,0.102-1.452,0.274-2.163c0.096-0.4,0.086-0.788-0.064-1.168c-0.084-0.013-0.17-0.025-0.25-0.04
				c-0.38,0.242-0.51,0.639-0.615,1.033c-0.374,1.312-0.667,2.646-0.506,4.021c0.244,1.977,0.934,3.805,1.944,5.515
				c0.428,0.725,1.006,1.315,1.605,1.903c0.676,0.674,1.289,1.419,1.936,2.132c0.066,0.074,0.143,0.141,0.213,0.21
				c0.002,0.236,0.219,0.479,0.219,0.479c0.486,0.318,1.207,1.109,1.754,1.751c0.016,0.046,0.053,0.079,0.068,0.125
				c0.35,1.053,0.418,2.149,0.49,3.244c0.049,0.815,0.23,1.603,0.424,2.385c-0.883-0.074-2.09-0.38-2.697-0.995
				c-0.691-0.696-1.447-1.821-0.963-3.214c0.188-0.545,0.119-1.309,0.055-1.693c-0.066-0.353-0.191-0.643-0.338-0.625
				c-0.098,0.01-0.205,0.113-0.123,0.732c0.062,0.492-0.057,0.934-0.404,1.652c-0.436,0.904-0.094,3.523,1.732,4.74
				c2.076,1.377,3.508,1.11,3.508,1.11s0.043,0,0.061,0.002c0.092,0.116,0.186,0.215,0.264,0.261
				c0.234,0.132,0.475,0.209,0.867,0.645c0.395,0.438,1.449,1.66,3.438,2.713c1.424,0.752,1.832,1.43,1.951,1.76
				c0.039,0.207,0.062,0.405,0.078,0.457c0.025,0.095,0.27,1.392,1.029,1.727c0.764,0.336,1.432,0.006,2.006-0.622
				c0.564-0.628,0.135-1.582-0.059-2.276C129.182-1.083,129.088-1.198,129.012-1.313z"/>
		</g>
	</g>
</g>
</svg>
