<?xml version="1.0" encoding="utf-8"?>
<!-- Generator: Adobe Illustrator 16.0.0, SVG Export Plug-In . SVG Version: 6.00 Build 0)  -->
<!DOCTYPE svg PUBLIC "-//W3C//DTD SVG 1.1//EN" "http://www.w3.org/Graphics/SVG/1.1/DTD/svg11.dtd">
<svg version="1.1" id="icon" xmlns="http://www.w3.org/2000/svg" xmlns:xlink="http://www.w3.org/1999/xlink" x="0px" y="0px"
	 width="14.172px" height="22.676px" viewBox="0 0 14.172 22.676" enable-background="new 0 0 14.172 22.676" xml:space="preserve">
<g>
	<path fill="#DF5033" d="M12.106,13.431c-1.267-2.673-0.712-4.302-0.462-4.819c-0.382,0.33-1.85,1.662-2.295,2.906
		c-0.278,0.787-0.893,0.853-1.307,0.661c-0.374-0.176-0.566-0.561-0.506-0.989c0.157-1.181,1.096-4.095-2.366-8.875
		c0,0,1.529,4.384-2.179,9.045c-0.793,0.958-1.291,2.162-1.291,3.506c0,3.035,2.459,5.498,5.499,5.498
		c1.862,0,3.461-0.896,4.437-2.279C12.273,16.917,12.887,15.098,12.106,13.431z"/>
</g>
</svg>
