<?xml version="1.0" encoding="utf-8"?>
<!-- Generator: Adobe Illustrator 20.1.0, SVG Export Plug-In . SVG Version: 6.00 Build 0)  -->
<svg version="1.1" id="icon" xmlns="http://www.w3.org/2000/svg" xmlns:xlink="http://www.w3.org/1999/xlink" x="0px" y="0px"
	 viewBox="0 0 44.5 40.8" style="enable-background:new 0 0 44.5 40.8;" xml:space="preserve">
<style type="text/css">
	.st0{fill:#9E9E9F;}
</style>
<path class="st0" d="M22.2,0.8C11.4,0.8,2.5,9.6,2.5,20.4S11.5,40,22.2,40S42,31.2,42,20.4S33,0.8,22.2,0.8z M12,27V16.9l9.9,3.1
	v9.9L12,27z M31.8,26.3L31.8,26.3l-8.4,4.4V19.3c0-0.3-0.3-0.6-0.6-0.9L11.9,15l8.1-4.6l0,0l0,0l11.5,3.7l0,0l0,0l0,0
	C31.8,13.8,31.8,26.3,31.8,26.3z"/>
</svg>
