<?xml version="1.0" encoding="utf-8"?>
<!-- Generator: Adobe Illustrator 16.0.0, SVG Export Plug-In . SVG Version: 6.00 Build 0)  -->
<!DOCTYPE svg PUBLIC "-//W3C//DTD SVG 1.1//EN" "http://www.w3.org/Graphics/SVG/1.1/DTD/svg11.dtd">
<svg version="1.1" id="icon" xmlns="http://www.w3.org/2000/svg" xmlns:xlink="http://www.w3.org/1999/xlink" x="0px" y="0px"
	 width="14.172px" height="22.676px" viewBox="0 0 14.172 22.676" enable-background="new 0 0 14.172 22.676" xml:space="preserve">
<g>
	<path fill="#FFFFFF" d="M13.298,10.364c-0.055-0.089-0.142-0.152-0.236-0.174c-0.233-0.057-0.43,0.082-0.48,0.291
		c-0.13,0.533-0.644,1.966-1.451,2.201c-0.311,0.09-0.676-0.014-1.077-0.307l-0.155-0.112l0.095-0.168
		c0.648-1.144,1.167-2.453,1.542-3.893c0.026-0.102,0.012-0.208-0.041-0.3c-0.054-0.091-0.14-0.156-0.241-0.182
		c-0.033-0.009-0.066-0.013-0.1-0.013c-0.181,0-0.338,0.122-0.384,0.296c-0.815,3.13-2.209,5.048-3.339,6.162
		c0.215,0.192,0.424,0.36,0.622,0.507c0.432-0.432,0.873-0.947,1.302-1.562l0.123-0.177l0.176,0.123
		c0.282,0.196,0.551,0.329,0.8,0.394c0.305,0.079,0.608,0.075,0.9-0.01c1.389-0.406,1.939-2.534,1.998-2.775
		C13.375,10.564,13.356,10.457,13.298,10.364z"/>
	<path fill="#FFFFFF" d="M4.72,15.965c-0.204,0.062-0.323,0.284-0.26,0.492c0.041,0.134,0.145,0.233,0.279,0.269
		c0.07,0.019,0.143,0.018,0.211-0.003c0.055-0.017,0.807-0.247,1.812-0.958c-0.202-0.161-0.41-0.34-0.622-0.538
		C5.314,15.784,4.728,15.963,4.72,15.965z"/>
	<path fill="#FFFFFF" d="M9.509,15.964c-0.002,0-0.594-0.187-1.415-0.738c-0.059-0.039-0.119-0.081-0.18-0.124
		c-0.058-0.041-0.117-0.084-0.177-0.129c-0.199-0.149-0.406-0.317-0.62-0.509c0,0-0.001-0.001-0.001-0.002
		c-0.052-0.046-0.105-0.097-0.159-0.146c-0.051-0.048-0.103-0.099-0.155-0.15c-1.129-1.113-2.523-3.032-3.339-6.162
		C3.41,7.796,3.19,7.667,2.98,7.72C2.878,7.747,2.793,7.811,2.739,7.902C2.686,7.994,2.671,8.1,2.698,8.202
		C3.072,9.64,3.591,10.95,4.24,12.095l0.094,0.168l-0.155,0.112c-0.402,0.293-0.769,0.396-1.076,0.307
		c-0.808-0.235-1.322-1.668-1.452-2.201c-0.051-0.209-0.266-0.344-0.478-0.292c-0.098,0.022-0.185,0.086-0.24,0.175
		c-0.058,0.093-0.077,0.2-0.052,0.302c0.058,0.241,0.609,2.368,1.998,2.774c0.293,0.086,0.595,0.089,0.9,0.01
		c0.249-0.064,0.518-0.197,0.799-0.394l0.177-0.123l0.123,0.177c0.428,0.614,0.871,1.13,1.302,1.561
		c0.052,0.053,0.104,0.103,0.156,0.152c0.053,0.051,0.106,0.101,0.159,0.149c0.212,0.195,0.421,0.371,0.621,0.528
		c0.06,0.046,0.118,0.09,0.176,0.134c0.061,0.045,0.12,0.088,0.179,0.13c1.004,0.71,1.757,0.941,1.812,0.958
		c0.036,0.011,0.074,0.016,0.111,0.016c0.032,0,0.066-0.004,0.098-0.013c0.136-0.035,0.24-0.136,0.28-0.269
		C9.835,16.249,9.717,16.027,9.509,15.964z"/>
</g>
</svg>
